<?xml version="1.0" standalone="no"?>
<!DOCTYPE svg PUBLIC "-//W3C//DTD SVG 20010904//EN"
 "http://www.w3.org/TR/2001/REC-SVG-20010904/DTD/svg10.dtd">
<svg version="1.0" xmlns="http://www.w3.org/2000/svg"
 width="207.000000pt" height="244.000000pt" viewBox="0 0 207.000000 244.000000"
 preserveAspectRatio="xMidYMid meet">

<g transform="translate(0.000000,244.000000) scale(0.100000,-0.100000)"
fill="#000000" stroke="none">
<path d="M1401 2353 c2 -16 -14 -53 -22 -53 -5 0 -9 10 -9 23 0 17 -6 13 -27
-23 -30 -50 -42 -41 -19 14 10 25 11 35 3 33 -16 -3 -36 -30 -31 -39 3 -5 -1
-8 -9 -8 -16 0 -30 -27 -21 -41 7 -12 -13 -11 -38 2 -18 10 -19 8 -13 -11 5
-15 4 -20 -4 -16 -13 8 -53 -2 -47 -12 2 -4 -2 -13 -10 -20 -11 -10 -14 -10
-14 0 0 9 -3 9 -10 -2 -5 -8 -19 -15 -32 -15 -13 0 -27 -9 -34 -24 -15 -30
-46 -49 -52 -33 -6 18 -32 14 -32 -3 0 -10 7 -15 17 -13 12 2 18 -4 19 -19 2
-36 3 -36 21 -22 9 8 19 12 22 9 3 -3 7 5 9 18 4 24 22 28 53 12 16 -9 19 -7
20 12 1 13 1 28 0 34 -1 6 11 16 26 23 25 12 29 10 49 -15 17 -21 27 -25 47
-20 15 3 29 1 32 -5 12 -18 42 19 49 61 5 34 12 42 42 55 34 14 38 14 63 -8
15 -12 26 -28 23 -35 -2 -7 0 -12 5 -12 24 0 21 17 -9 48 l-33 35 28 -7 c17
-4 35 -2 43 5 18 14 18 29 1 29 -7 0 -23 9 -34 19 -20 19 -21 19 -33 -7 -11
-24 -13 -25 -22 -9 -7 13 -6 22 2 33 10 11 9 14 -4 14 -9 0 -16 -3 -15 -7z"/>
<path d="M1395 2248 c-29 -16 -45 -39 -45 -65 0 -35 -33 -67 -57 -55 -11 6
-25 7 -35 1 -12 -7 -23 -1 -43 23 -24 28 -28 30 -37 15 -5 -10 -14 -14 -20
-11 -6 4 -8 3 -4 -4 3 -6 2 -22 -4 -36 -8 -23 -12 -25 -35 -16 -34 13 -32 14
-39 -16 -5 -17 -12 -24 -21 -20 -14 5 -48 -44 -43 -61 4 -12 -43 -103 -53
-103 -5 0 -9 -14 -9 -30 0 -17 -6 -46 -14 -64 -10 -23 -11 -37 -4 -44 14 -14
1 -32 -21 -32 -33 0 -45 -28 -45 -101 1 -39 6 -75 14 -84 7 -9 9 -22 5 -32 -5
-10 -7 -26 -6 -35 1 -9 -5 -30 -13 -47 -9 -16 -16 -39 -16 -51 0 -11 -4 -20
-10 -20 -18 0 -11 -36 21 -98 16 -34 29 -67 28 -74 -5 -25 12 -57 27 -51 7 3
14 12 14 19 0 8 14 17 30 21 37 7 48 25 56 96 6 53 39 107 64 107 6 0 9 3 8 8
0 4 3 16 7 26 7 15 1 25 -23 46 -23 19 -32 35 -32 57 0 70 13 97 77 161 62 62
67 70 64 104 -1 10 9 37 24 61 20 36 30 43 48 40 23 -5 23 -4 16 64 -5 37 -8
79 -8 92 -1 16 -18 41 -47 69 -43 41 -35 44 12 5 33 -28 42 -53 50 -138 6 -62
12 -84 29 -101 26 -26 39 -74 19 -74 -7 0 -22 -16 -34 -35 -12 -19 -30 -40
-41 -45 -10 -6 -19 -16 -19 -23 0 -7 -12 -23 -25 -36 -19 -17 -24 -29 -19 -45
4 -11 7 -48 7 -82 0 -49 3 -63 19 -73 10 -6 23 -9 28 -6 6 4 10 -1 10 -9 0
-20 1 -20 90 8 67 21 81 31 133 87 72 78 79 101 42 139 -22 23 -26 32 -17 43
9 11 8 22 -4 46 -12 23 -15 46 -10 77 4 30 0 58 -11 85 -15 38 -15 43 1 69 18
31 13 56 -15 71 -13 6 -19 21 -19 42 0 42 10 78 20 72 13 -8 -2 39 -18 58 -17
20 -20 20 -47 5z"/>
<path d="M1111 2214 c0 -11 3 -14 6 -6 3 7 2 16 -1 19 -3 4 -6 -2 -5 -13z"/>
<path d="M955 2141 c-3 -5 -1 -12 5 -16 5 -3 10 1 10 9 0 18 -6 21 -15 7z"/>
<path d="M995 2049 c-4 -6 -14 -8 -24 -5 -14 5 -13 4 2 -8 23 -18 22 -29 -3
-21 -11 4 -20 2 -20 -4 0 -6 8 -11 18 -12 9 0 2 -5 -15 -10 -21 -6 -33 -16
-33 -27 0 -10 -6 -24 -12 -31 -11 -11 -8 -12 12 -6 22 7 23 6 11 -9 -7 -9 -20
-16 -28 -16 -8 0 -11 -4 -8 -10 3 -5 1 -10 -5 -10 -6 0 -10 -11 -8 -24 2 -16
-6 -34 -22 -51 -14 -15 -24 -29 -22 -32 2 -3 -7 -11 -20 -17 -13 -7 -24 -22
-26 -36 -2 -23 -1 -24 11 -7 14 17 37 23 37 10 -1 -26 -56 -61 -62 -41 -4 11
-48 -24 -48 -37 0 -3 0 -9 0 -14 0 -5 -6 -9 -12 -8 -7 0 -24 -1 -38 -2 -22 -1
-23 -3 -7 -12 17 -10 15 -29 -4 -29 -6 0 -7 5 -4 10 3 6 1 10 -4 10 -6 0 -11
-4 -11 -9 0 -5 -8 -12 -17 -14 -10 -3 -5 -5 12 -6 21 -1 26 -4 16 -10 -7 -5
-22 -6 -33 -3 -18 4 -19 3 -7 -17 8 -11 17 -21 21 -21 5 0 8 -4 8 -10 0 -5 -8
-10 -17 -10 -13 0 -15 -2 -5 -8 8 -5 10 -16 6 -27 -5 -12 -4 -16 3 -12 6 4 13
-2 16 -13 3 -13 1 -18 -6 -13 -7 3 -9 3 -5 -2 4 -4 0 -14 -10 -22 -15 -13 -15
-13 5 -4 31 15 35 14 23 -9 -6 -11 -7 -20 -3 -20 4 0 0 -7 -9 -14 -16 -12 -16
-14 6 -35 16 -15 29 -19 43 -14 34 13 93 71 93 92 0 11 5 23 10 26 6 3 10 -2
10 -12 0 -11 5 -24 12 -31 9 -9 15 -3 26 26 8 20 15 51 15 67 0 17 4 33 10 37
7 4 7 12 -2 22 -8 10 -14 45 -15 90 -1 79 16 116 56 116 19 0 24 15 9 25 -6 3
-4 19 5 40 8 19 14 50 14 70 0 21 5 35 13 35 15 1 52 78 49 102 -2 9 2 19 8
23 13 8 13 25 1 25 -6 0 -13 -5 -16 -11z"/>
<path d="M1302 1388 c-28 -8 -33 -13 -30 -36 2 -15 9 -26 16 -24 6 1 12 -5 12
-14 0 -10 6 -14 15 -11 7 3 24 -2 36 -12 33 -26 60 -16 53 19 -4 15 -1 37 6
50 6 12 10 23 8 24 -11 10 -88 12 -116 4z"/>
<path d="M250 1310 c0 -11 -4 -20 -10 -20 -5 0 -9 -10 -9 -22 0 -13 -2 -33 -6
-46 -6 -18 -4 -21 8 -16 12 4 14 1 10 -15 -4 -15 -1 -21 12 -21 14 0 16 -6 10
-36 -6 -36 -6 -37 23 -31 26 5 29 3 25 -12 -3 -10 0 -22 6 -25 16 -10 14 -67
-1 -65 -28 3 -35 -2 -31 -25 4 -17 -1 -27 -16 -35 -28 -16 -27 -29 3 -24 13 3
27 0 31 -7 5 -8 11 -8 23 2 13 11 14 11 10 -2 -2 -8 -14 -16 -25 -18 -11 -2
-31 -14 -43 -27 l-22 -24 23 1 c13 1 30 6 37 11 7 6 41 12 75 15 34 2 69 8 77
13 10 5 11 8 3 9 -18 0 -16 14 7 40 26 30 21 45 -13 45 -22 -1 -27 4 -27 22 0
13 -5 23 -11 23 -6 0 -9 9 -6 20 3 12 -2 25 -12 33 -10 6 -22 25 -28 41 -9 29
-19 38 -58 51 -13 5 -15 9 -7 12 6 3 10 9 6 14 -3 5 -1 9 5 9 10 0 41 50 41
66 0 3 -18 4 -40 2 -46 -4 -48 -1 -19 36 l20 26 -35 0 c-29 0 -36 -4 -36 -20z"/>
<path d="M1083 1275 c-3 -9 -3 -18 -1 -21 3 -3 8 4 11 16 6 23 -1 27 -10 5z"/>
<path d="M1297 1260 c-8 -35 -36 -41 -55 -10 -20 33 -46 22 -56 -25 l-6 -30
70 2 c56 1 75 -3 95 -19 18 -14 33 -18 52 -14 24 7 25 10 19 49 -7 42 -20 59
-41 51 -6 -3 -18 2 -25 11 -21 25 -47 18 -53 -15z"/>
<path d="M783 1259 c-6 -6 -22 -17 -35 -23 -25 -13 -37 -68 -19 -90 6 -7 13
-30 17 -52 3 -21 13 -47 21 -56 9 -10 11 -18 5 -18 -6 0 -14 5 -18 11 -5 8 -9
7 -15 -4 -6 -9 -17 -13 -29 -10 -16 4 -20 0 -20 -21 0 -14 -4 -26 -10 -26 -5
0 -7 -7 -3 -15 3 -9 -2 -21 -11 -28 -13 -10 -16 -23 -12 -62 3 -28 5 -55 5
-62 1 -6 15 -16 32 -22 31 -11 32 -15 11 -70 -4 -9 1 -12 15 -7 11 4 32 2 46
-3 31 -12 129 -3 121 11 -3 5 2 18 12 29 17 19 16 20 -9 47 -15 16 -27 33 -27
39 0 6 20 21 45 33 25 12 47 26 50 30 3 5 -1 28 -10 52 -8 24 -15 57 -15 73 0
41 -42 62 -77 40 -29 -19 -47 -19 -39 0 4 11 -2 15 -20 15 -14 0 -22 4 -19 10
3 6 2 10 -2 10 -16 0 -2 68 18 89 11 12 15 21 8 21 -7 0 -9 11 -5 35 7 38 6
41 -11 24z"/>
<path d="M1191 1176 c-15 -18 1 -56 25 -56 8 0 18 -10 23 -23 22 -57 63 -58
105 -2 42 55 16 84 -84 92 -42 3 -60 1 -69 -11z"/>
<path d="M843 1163 c-17 -6 -16 -28 2 -43 12 -10 15 -10 15 3 0 8 3 22 6 31 6
16 0 19 -23 9z"/>
<path d="M1403 1156 c-13 -6 -23 -16 -23 -23 0 -12 -9 -24 -57 -75 -9 -10 -24
-18 -34 -18 -15 0 -17 -6 -12 -34 3 -19 1 -36 -6 -40 -7 -5 -8 -12 0 -24 8
-13 22 -16 57 -14 26 2 67 -4 92 -12 36 -13 38 -14 10 -9 -19 4 -60 7 -90 7
l-55 1 2 -33 c1 -23 -6 -40 -24 -58 -14 -14 -22 -31 -19 -39 3 -8 1 -15 -4
-15 -6 0 -10 -9 -10 -20 0 -13 8 -21 25 -25 14 -3 35 -7 48 -10 12 -2 35 2 51
10 31 16 74 19 94 7 15 -10 52 -76 52 -93 0 -6 -7 -9 -15 -5 -15 5 -42 -30
-31 -41 8 -8 56 25 63 43 6 15 63 20 63 5 0 -5 12 -12 26 -15 25 -7 26 -8 9
-26 -11 -12 -13 -20 -7 -20 7 0 12 -9 12 -21 0 -16 4 -19 18 -14 9 4 33 14 52
21 32 12 33 13 9 14 -15 0 -32 7 -39 15 -18 22 1 40 60 60 26 9 56 25 65 35
10 11 26 20 37 20 13 0 18 7 18 29 0 16 3 36 6 44 4 11 -6 19 -33 27 -21 7
-42 15 -48 19 -5 3 -17 6 -25 7 -8 1 -23 2 -33 3 -10 0 -22 12 -27 26 -5 14
-16 25 -25 25 -9 0 -15 9 -15 24 0 14 -4 27 -9 31 -18 10 -104 -19 -109 -37
-5 -20 -8 -21 -37 -7 -19 9 -19 9 2 5 15 -3 24 2 28 14 3 10 12 21 21 24 10 4
13 13 8 31 -5 21 -3 25 15 25 12 0 21 6 21 15 0 8 -4 15 -10 15 -14 0 -42 46
-49 81 -5 25 -14 34 -46 45 -45 15 -42 15 -72 0z"/>
<path d="M140 1105 c-7 -8 -8 -15 -2 -15 5 0 15 7 22 15 7 8 8 15 2 15 -5 0
-15 -7 -22 -15z"/>
<path d="M176 1099 c-14 -11 -23 -25 -20 -31 4 -6 10 -6 17 1 7 7 14 7 23 0
18 -15 33 -3 27 21 -8 30 -18 32 -47 9z"/>
<path d="M995 1065 c-58 -28 -62 -41 -37 -129 12 -41 23 -62 39 -69 12 -5 20
-15 16 -20 -4 -6 0 -8 10 -4 9 3 31 -5 51 -18 20 -14 36 -22 36 -18 0 3 6 0
14 -6 8 -7 25 -9 39 -6 14 4 33 3 43 -3 11 -6 -6 -8 -55 -6 -43 2 -71 0 -71
-6 0 -6 -11 -15 -25 -22 -20 -9 -22 -14 -14 -29 10 -20 44 -26 54 -9 3 6 17
10 31 10 13 0 24 5 24 11 0 6 14 9 32 7 27 -3 33 1 41 27 5 17 20 42 33 56 23
25 24 27 9 74 -10 35 -11 53 -4 62 7 7 8 29 4 52 -6 36 -10 41 -41 47 -19 3
-54 3 -78 0 -32 -5 -46 -3 -56 9 -17 20 -35 18 -95 -10z"/>
<path d="M130 1072 c0 -7 -10 -12 -22 -12 -17 0 -23 -6 -24 -25 -2 -19 3 -25
18 -25 16 0 18 -3 9 -13 -6 -8 -8 -17 -5 -20 4 -3 -1 -14 -11 -23 -14 -14 -14
-19 -3 -30 11 -11 22 -9 66 13 46 23 52 29 52 57 0 34 -24 76 -36 63 -4 -4
-16 0 -26 10 -11 9 -18 11 -18 5z"/>
<path d="M635 981 c7 -32 -11 -53 -26 -30 -8 12 -11 12 -19 -1 -14 -22 -13
-24 20 -43 29 -18 30 -18 30 1 0 11 7 23 16 26 9 3 14 12 11 20 -3 7 -1 18 5
24 14 14 1 32 -23 32 -17 0 -20 -4 -14 -29z"/>
<path d="M563 892 c-18 -2 -33 -6 -33 -9 0 -10 54 -53 66 -53 7 0 15 -8 18
-17 6 -15 9 -14 20 7 10 21 10 29 -1 47 -17 26 -28 29 -70 25z"/>
<path d="M490 851 c0 -20 -59 -71 -82 -71 -8 0 -20 6 -27 13 -10 10 -11 7 -6
-14 5 -22 2 -27 -17 -32 -12 -4 -26 -3 -31 2 -4 4 -19 6 -31 4 -33 -7 -22 -40
15 -48 18 -4 35 -17 44 -34 7 -15 20 -33 28 -39 11 -9 12 -26 5 -79 -9 -79 0
-93 62 -93 20 0 41 -5 48 -12 8 -8 19 -3 42 22 19 21 36 30 46 26 43 -16 64
-17 88 -1 22 14 24 20 13 29 -18 14 -28 44 -18 50 14 9 0 58 -15 52 -22 -8
-17 10 15 56 48 71 48 82 -1 98 -40 13 -86 37 -98 50 -12 14 -56 40 -67 40 -7
0 -13 -8 -13 -19z"/>
<path d="M914 856 c-44 -20 -48 -30 -19 -64 23 -28 29 -30 89 -28 48 1 70 7
86 21 20 18 20 20 4 32 -10 7 -26 13 -37 13 -10 0 -30 9 -44 20 -30 23 -37 24
-79 6z"/>
<path d="M948 749 c-10 -5 -18 -7 -18 -4 0 3 -9 1 -20 -5 -15 -8 -19 -17 -15
-31 5 -16 1 -19 -23 -19 -42 0 -92 -11 -92 -20 0 -5 20 -6 44 -3 25 2 47 0 51
-6 7 -12 83 -15 109 -5 21 8 52 72 40 84 -16 15 -58 20 -76 9z"/>
<path d="M1150 731 c-41 -23 -69 -32 -86 -30 -46 8 -62 -49 -21 -76 20 -12 32
-13 80 -3 31 7 57 15 57 19 0 3 11 23 25 43 l25 37 -26 9 c-30 12 -34 12 -54
1z"/>
<path d="M1356 714 c-21 -7 -49 -11 -62 -8 -42 11 -73 -4 -94 -45 -11 -22 -25
-41 -31 -43 -14 -5 37 -68 54 -68 7 0 18 -9 25 -20 14 -23 75 -27 117 -8 21 9
31 9 46 0 26 -16 27 -16 34 18 4 17 10 28 15 25 5 -3 12 0 15 6 5 7 -1 9 -16
7 -21 -3 -25 3 -33 37 -4 22 -14 52 -22 67 -21 39 -17 47 6 13 11 -16 20 -42
20 -57 0 -34 9 -35 32 -4 16 22 16 27 3 52 -24 47 -44 52 -109 28z"/>
<path d="M680 670 c-19 -19 -19 -22 -5 -36 10 -10 22 -13 33 -8 9 4 22 6 29 5
6 -1 14 3 18 8 3 6 13 7 22 4 13 -5 13 -3 -2 20 -21 33 -66 36 -95 7z"/>
<path d="M820 653 c-8 -3 -19 -12 -23 -20 -5 -7 -13 -10 -19 -7 -6 4 -14 1
-18 -7 -7 -10 -11 -10 -24 0 -9 8 -16 9 -16 3 0 -5 -8 -12 -18 -14 -12 -4 -18
-16 -20 -40 -3 -41 17 -55 48 -35 25 15 50 1 69 -39 20 -43 60 -82 108 -105
63 -31 96 -74 89 -118 l-5 -36 19 25 c23 29 25 47 8 53 -9 3 -8 10 6 26 18 20
20 20 39 4 11 -10 17 -12 13 -5 -4 7 -25 24 -47 38 -24 15 -37 29 -33 36 5 7
2 9 -9 5 -21 -8 -63 26 -71 57 -3 14 -15 28 -26 31 -22 7 -22 6 -26 53 -2 23
3 35 17 42 26 15 24 35 -6 48 -28 13 -32 13 -55 5z"/>
<path d="M960 641 c-26 -4 -35 -11 -35 -25 0 -31 39 -27 58 6 9 15 15 27 14
27 -1 -1 -18 -4 -37 -8z"/>
<path d="M985 608 c-6 -13 -16 -22 -23 -20 -16 3 -15 -1 9 -48 12 -22 28 -40
36 -40 12 0 10 7 -7 35 -19 31 -20 36 -5 41 9 4 38 4 65 1 36 -4 48 -3 44 6
-4 11 -21 19 -94 43 -9 3 -19 -4 -25 -18z"/>
<path d="M1121 611 c-7 -5 -10 -18 -6 -32 14 -57 12 -83 -8 -99 -25 -21 -14
-42 18 -34 12 3 26 1 30 -5 8 -15 57 -2 72 18 8 11 8 22 1 34 -5 10 -7 25 -4
33 3 8 -1 14 -9 14 -8 0 -25 16 -37 35 -25 38 -39 47 -57 36z"/>
<path d="M1006 541 c9 -14 26 -39 40 -56 22 -28 25 -29 41 -13 9 10 18 33 19
52 3 34 2 35 -39 40 -73 9 -79 7 -61 -23z"/>
<path d="M1230 514 c0 -5 5 -15 11 -21 8 -8 8 -17 1 -29 -6 -12 -7 -25 0 -39
8 -18 19 -22 61 -23 34 -1 57 4 69 14 9 9 22 13 28 9 6 -4 11 -1 9 6 -3 25 1
37 16 52 13 13 11 16 -14 27 -21 8 -35 9 -49 1 -28 -15 -105 -14 -120 1 -7 7
-12 8 -12 2z"/>
<path d="M140 491 c0 -6 -7 -11 -15 -11 -20 0 -19 -24 1 -45 11 -11 25 -14 44
-10 32 7 46 -15 30 -45 -5 -10 -12 -47 -16 -81 -3 -35 -7 -66 -10 -70 -2 -4
10 -22 27 -40 23 -25 33 -29 39 -20 4 8 31 16 59 19 63 6 123 56 119 101 -3
36 33 85 79 108 44 21 52 37 21 40 -45 3 -130 22 -141 31 -7 5 -52 12 -101 16
-49 3 -99 9 -112 12 -15 4 -24 2 -24 -5z"/>
<path d="M746 443 c-9 -9 -7 -33 3 -33 12 0 22 28 12 34 -5 3 -11 3 -15 -1z"/>
<path d="M1122 393 c0 -60 15 -82 35 -53 10 14 11 25 3 39 -5 11 -10 29 -10
40 0 12 -6 21 -14 21 -10 0 -14 -13 -14 -47z"/>
<path d="M1170 415 c-10 -12 -10 -18 0 -29 10 -14 32 -10 68 10 1 0 0 9 -4 18
-8 20 -47 21 -64 1z"/>
<path d="M122 373 c-1 -23 -6 -52 -12 -64 -9 -15 -8 -24 2 -36 7 -9 11 -26 10
-38 -4 -31 18 -43 35 -19 10 12 13 34 10 62 -2 23 -1 42 4 42 5 0 9 13 9 29 0
17 5 33 11 36 19 13 3 27 -33 30 -36 2 -36 2 -36 -42z"/>
<path d="M1377 413 c-10 -10 -8 -53 2 -53 6 0 13 5 16 10 3 6 18 10 33 10 l27
0 -30 20 c-33 22 -38 23 -48 13z"/>
<path d="M1594 409 c-17 -5 -37 -15 -43 -23 -8 -10 -25 -13 -49 -10 -20 2 -31
1 -24 -2 21 -10 -18 -33 -55 -34 -17 0 -38 -3 -47 -6 -19 -7 -21 -24 -3 -24 7
0 14 -13 15 -30 3 -43 20 -80 35 -80 8 0 26 -9 40 -20 l26 -21 18 20 c17 20
17 20 55 -1 37 -21 40 -21 71 -6 18 9 57 17 87 18 57 2 84 4 212 15 l77 8 -7
31 c-3 17 -6 42 -6 56 0 14 -6 30 -12 35 -7 6 -14 19 -16 30 -3 17 -10 19 -43
17 -122 -11 -190 -6 -228 16 -40 24 -55 25 -103 11z"/>
<path d="M1212 373 c-38 -18 -57 -47 -46 -71 4 -9 8 -21 8 -27 1 -5 17 -13 36
-16 19 -3 44 -10 55 -14 17 -6 17 -4 -3 12 -13 11 -23 26 -21 34 1 8 -1 22 -6
32 -4 11 -3 23 4 30 8 8 11 7 11 -3 1 -11 5 -9 16 5 10 14 26 20 54 20 21 0
33 3 27 7 -21 13 -101 8 -135 -9z"/>
<path d="M732 331 c0 -43 8 -50 28 -27 16 20 9 60 -12 64 -14 3 -17 -5 -16
-37z"/>
<path d="M1193 242 c-9 -6 -6 -15 11 -35 15 -17 27 -24 31 -18 3 6 3 16 0 21
-3 6 0 10 7 10 8 1 6 6 -6 15 -23 17 -26 18 -43 7z"/>
<path d="M885 230 c5 -8 69 -40 80 -40 1 0 3 11 3 25 0 23 -4 25 -45 25 -27 0
-42 -4 -38 -10z"/>
</g>
</svg>
